<?xml version="1.0" encoding="UTF-8" standalone="no"?>
<!-- Created with Inkscape (http://www.inkscape.org/) -->

<svg
   width="42.933266mm"
   height="21.73069mm"
   viewBox="0 0 42.933266 21.73069"
   version="1.1"
   id="svg1"
   inkscape:version="1.3.2 (1:1.3.2+202404261509+091e20ef0f)"
   sodipodi:docname="logo_web_color_mobile.svg"
   xmlns:inkscape="http://www.inkscape.org/namespaces/inkscape"
   xmlns:sodipodi="http://sodipodi.sourceforge.net/DTD/sodipodi-0.dtd"
   xmlns="http://www.w3.org/2000/svg"
   xmlns:svg="http://www.w3.org/2000/svg">
  <sodipodi:namedview
     id="namedview1"
     pagecolor="#ffffff"
     bordercolor="#000000"
     borderopacity="0.25"
     inkscape:showpageshadow="2"
     inkscape:pageopacity="0.0"
     inkscape:pagecheckerboard="0"
     inkscape:deskcolor="#d1d1d1"
     inkscape:document-units="mm"
     inkscape:zoom="0.71090067"
     inkscape:cx="-153.32662"
     inkscape:cy="151.91996"
     inkscape:window-width="1920"
     inkscape:window-height="1043"
     inkscape:window-x="0"
     inkscape:window-y="0"
     inkscape:window-maximized="1"
     inkscape:current-layer="layer1" />
  <defs
     id="defs1">
    <clipPath
       clipPathUnits="userSpaceOnUse"
       id="clipPath49">
      <path
         d="M 0,841.89 H 595.28 V 0 H 0 Z"
         transform="translate(-307.31931,-415.09471)"
         id="path49" />
    </clipPath>
    <clipPath
       clipPathUnits="userSpaceOnUse"
       id="clipPath51">
      <path
         d="M 0,841.89 H 595.28 V 0 H 0 Z"
         transform="translate(-305.30081,-420.85161)"
         id="path51" />
    </clipPath>
    <clipPath
       clipPathUnits="userSpaceOnUse"
       id="clipPath53">
      <path
         d="M 0,841.89 H 595.28 V 0 H 0 Z"
         transform="translate(-280.4443,-365.59861)"
         id="path53" />
    </clipPath>
    <clipPath
       clipPathUnits="userSpaceOnUse"
       id="clipPath55">
      <path
         d="M 0,841.89 H 595.28 V 0 H 0 Z"
         transform="translate(-305.15721,-389.00881)"
         id="path55" />
    </clipPath>
  </defs>
  <g
     inkscape:label="Layer 1"
     inkscape:groupmode="layer"
     id="layer1"
     transform="translate(-145.52083,-108.47916)">
    <g
       id="g1"
       transform="matrix(0.26458333,0,0,0.26458333,63.487228,-40.020663)">
      <path
         id="path48"
         d="M 0,0 0.01,0.012 C 0.007,0.01 0.005,0.008 0.003,0.006 Z"
         style="fill:#ff3c1f;fill-opacity:1;fill-rule:nonzero;stroke:none"
         transform="matrix(1.3333333,0,0,-1.3333333,409.75907,569.0604)"
         clip-path="url(#clipPath49)" />
      <path
         id="path50"
         d="m 0,0 c -0.653,0.001 -0.974,-0.501 -1.187,-0.77 -0.024,-0.061 -9.83,-12.895 -9.989,-12.95 -0.142,0.205 -6.773,9.041 -9.914,13.278 -0.282,0.38 -0.544,0.488 -0.968,0.488 -5.157,0.004 -21.973,0.046 -22.621,0.048 0.706,-0.901 21.824,-29.076 21.936,-29.21 -0.061,-0.201 -15.368,-20.744 -17.164,-23.114 2.418,-0.004 4.64,-0.009 6.894,-0.014 2.499,3.337 15.576,20.684 17.249,22.865 -0.331,0.457 -17.548,23.962 -17.424,23.962 2.984,0.007 5.97,-0.003 8.971,-0.008 4.38,-5.86 8.762,-11.717 13.181,-17.628 0.326,0.415 13.204,17.548 13.232,17.596 0.072,0.04 34.069,-0.008 46.74,-0.028 v 5.443 C 36.05,-0.031 0.537,-0.001 0,0"
         style="fill:#ff3c1f;fill-opacity:1;fill-rule:nonzero;stroke:none"
         transform="matrix(1.3333333,0,0,-1.3333333,407.06773,561.38453)"
         clip-path="url(#clipPath51)" />
      <path
         id="path52"
         d="m 0,0 -0.01,-0.012 c 0.003,0.002 0.004,0.004 0.007,0.006 0,0.002 0.002,0.003 0.003,0.006 z"
         style="fill:none;stroke:#123274;stroke-width:1;stroke-linecap:butt;stroke-linejoin:miter;stroke-miterlimit:10;stroke-dasharray:none;stroke-opacity:1"
         transform="matrix(1.3333333,0,0,-1.3333333,373.92573,635.0552)"
         clip-path="url(#clipPath53)" />
      <path
         id="path54"
         d="M 0,0 C 0.06,0.2 15.323,20.777 17.114,23.15 H 10.22 C 7.728,19.808 -5.311,2.434 -6.98,0.249 c 0.333,-0.457 17.598,-23.926 17.474,-23.926 -2.985,-0.012 -5.969,-0.01 -8.972,-0.01 -4.392,5.85 -8.784,11.699 -13.219,17.6 -0.324,-0.417 -13.164,-17.575 -13.193,-17.624 -0.059,-0.033 -8.603,-0.021 -47.231,-0.011 v -5.436 c 39.324,-10e-4 48.995,-0.004 49.437,-0.004 0.655,0 0.974,0.502 1.189,0.771 0.023,0.061 9.8,12.916 9.959,12.971 0.144,-0.204 6.793,-9.027 9.943,-13.256 0.283,-0.381 0.544,-0.487 0.971,-0.486 5.153,0.006 21.971,0 22.62,0 C 21.289,-28.264 0.112,-0.133 0,0 Z"
         style="fill:none;stroke:#123274;stroke-width:1;stroke-linecap:butt;stroke-linejoin:miter;stroke-miterlimit:10;stroke-dasharray:none;stroke-opacity:1"
         transform="matrix(1.3333333,0,0,-1.3333333,406.87627,603.8416)"
         clip-path="url(#clipPath55)" />
    </g>
  </g>
</svg>
