<?xml version="1.0" encoding="UTF-8" standalone="no"?>
<!-- Created with Inkscape (http://www.inkscape.org/) -->

<svg
   width="101.79399mm"
   height="19.135691mm"
   viewBox="0 0 101.79399 19.135691"
   version="1.1"
   id="svg1"
   inkscape:version="1.3.2 (1:1.3.2+202404261509+091e20ef0f)"
   sodipodi:docname="logo_web_color.svg"
   xmlns:inkscape="http://www.inkscape.org/namespaces/inkscape"
   xmlns:sodipodi="http://sodipodi.sourceforge.net/DTD/sodipodi-0.dtd"
   xmlns="http://www.w3.org/2000/svg"
   xmlns:svg="http://www.w3.org/2000/svg">
  <sodipodi:namedview
     id="namedview1"
     pagecolor="#ffffff"
     bordercolor="#000000"
     borderopacity="0.25"
     inkscape:showpageshadow="2"
     inkscape:pageopacity="0.0"
     inkscape:pagecheckerboard="0"
     inkscape:deskcolor="#d1d1d1"
     inkscape:document-units="mm"
     inkscape:zoom="0.71090067"
     inkscape:cx="192.71328"
     inkscape:cy="36.573323"
     inkscape:window-width="1920"
     inkscape:window-height="1043"
     inkscape:window-x="0"
     inkscape:window-y="0"
     inkscape:window-maximized="1"
     inkscape:current-layer="layer1" />
  <defs
     id="defs1">
    <clipPath
       clipPathUnits="userSpaceOnUse"
       id="clipPath31">
      <path
         d="M 0,841.89 H 595.28 V 0 H 0 Z"
         transform="translate(-361.11521,-679.60162)"
         id="path31" />
    </clipPath>
    <clipPath
       clipPathUnits="userSpaceOnUse"
       id="clipPath65">
      <path
         d="M 0,841.89 H 595.28 V 0 H 0 Z"
         transform="translate(-151.0483,-699.16162)"
         id="path65" />
    </clipPath>
    <clipPath
       clipPathUnits="userSpaceOnUse"
       id="clipPath67">
      <path
         d="M 0,841.89 H 595.28 V 0 H 0 Z"
         transform="translate(-169.47711,-702.66992)"
         id="path67" />
    </clipPath>
    <clipPath
       clipPathUnits="userSpaceOnUse"
       id="clipPath69">
      <path
         d="M 0,841.89 H 595.28 V 0 H 0 Z"
         transform="translate(-217.99371,-708.94432)"
         id="path69" />
    </clipPath>
    <clipPath
       clipPathUnits="userSpaceOnUse"
       id="clipPath71">
      <path
         d="M 0,841.89 H 595.28 V 0 H 0 Z"
         transform="translate(-238.49761,-682.56152)"
         id="path71" />
    </clipPath>
    <clipPath
       clipPathUnits="userSpaceOnUse"
       id="clipPath73">
      <path
         d="M 0,841.89 H 595.28 V 0 H 0 Z"
         transform="translate(-281.8267,-708.94432)"
         id="path73" />
    </clipPath>
    <clipPath
       clipPathUnits="userSpaceOnUse"
       id="clipPath75">
      <path
         d="M 0,841.89 H 595.28 V 0 H 0 Z"
         transform="translate(-382.85251,-700.19382)"
         id="path75" />
    </clipPath>
    <clipPath
       clipPathUnits="userSpaceOnUse"
       id="clipPath77">
      <path
         d="M 0,841.89 H 595.28 V 0 H 0 Z"
         transform="translate(-410.60741,-682.26461)"
         id="path77" />
    </clipPath>
    <clipPath
       clipPathUnits="userSpaceOnUse"
       id="clipPath79">
      <path
         d="M 0,841.89 H 595.28 V 0 H 0 Z"
         transform="translate(-384.75391,-723.13822)"
         id="path79" />
    </clipPath>
    <clipPath
       clipPathUnits="userSpaceOnUse"
       id="clipPath81">
      <path
         d="M 0,841.89 H 595.28 V 0 H 0 Z"
         transform="translate(-382.97951,-728.20172)"
         id="path81" />
    </clipPath>
  </defs>
  <g
     inkscape:label="Layer 1"
     inkscape:groupmode="layer"
     id="layer1"
     transform="translate(-53.974999,-138.90625)">
    <g
       id="g1"
       transform="matrix(0.26458333,0,0,0.26458333,5.301718,98.828826)">
      <path
         id="path30"
         d="m 0,0 -0.009,-0.01 c 0.003,0.001 0.004,0.003 0.007,0.005 0,0.002 0.001,0.003 0.002,0.005"
         style="fill:#123274;fill-opacity:1;fill-rule:evenodd;stroke:none"
         transform="matrix(1.3333333,0,0,-1.3333333,481.48693,216.38453)"
         clip-path="url(#clipPath31)"
         inkscape:export-filename="logo_web_photonext.png"
         inkscape:export-xdpi="96"
         inkscape:export-ydpi="96" />
      <path
         id="path64"
         d="m 0,0 c 4.199,0 6.274,3.261 6.274,6.522 0,3.31 -2.075,6.571 -6.274,6.571 H -7.609 V 0 Z m 0,18.132 c 7.46,0 11.215,-5.78 11.215,-11.561 C 11.215,0.791 7.46,-4.94 0,-4.94 h -7.609 v -11.512 h -5.039 v 34.584 z"
         style="fill:#123274;fill-opacity:1;fill-rule:nonzero;stroke:none"
         transform="matrix(1.3333333,0,0,-1.3333333,201.39773,190.30453)"
         clip-path="url(#clipPath65)" />
      <path
         id="path66"
         d="m 0,0 h 14.624 v 14.575 h 5.039 V -19.96 H 14.624 V -4.941 H 0 V -19.96 H -4.99 V 14.575 H 0 Z"
         style="fill:#123274;fill-opacity:1;fill-rule:nonzero;stroke:none"
         transform="matrix(1.3333333,0,0,-1.3333333,225.96947,185.6268)"
         clip-path="url(#clipPath67)" />
      <path
         id="path68"
         d="m 0,0 c -2.322,2.322 -5.534,3.754 -8.943,3.754 -3.409,0 -6.571,-1.432 -8.844,-3.754 -2.272,-2.273 -3.705,-5.435 -3.705,-8.942 0,-3.508 1.433,-6.67 3.705,-8.943 2.273,-2.322 5.435,-3.755 8.844,-3.755 3.409,0 6.621,1.433 8.943,3.755 2.223,2.273 3.656,5.385 3.656,8.943 C 3.656,-5.385 2.223,-2.273 0,0 m -21.393,3.557 c 3.162,3.212 7.609,5.237 12.45,5.237 4.891,0 9.289,-2.025 12.5,-5.237 3.113,-3.211 5.138,-7.608 5.138,-12.499 0,-4.891 -2.025,-9.289 -5.138,-12.5 -3.211,-3.261 -7.609,-5.237 -12.5,-5.237 -4.841,0 -9.288,1.976 -12.45,5.237 -3.112,3.211 -5.138,7.609 -5.138,12.5 0,4.891 2.026,9.288 5.138,12.499"
         style="fill:#123274;fill-opacity:1;fill-rule:nonzero;stroke:none"
         transform="matrix(1.3333333,0,0,-1.3333333,290.65827,177.26093)"
         clip-path="url(#clipPath69)" />
      <path
         id="path70"
         d="m 0,0 v 29.693 h -10.474 v 5.039 H 15.415 V 29.693 H 4.99 V 0 Z"
         style="fill:#123274;fill-opacity:1;fill-rule:nonzero;stroke:none"
         transform="matrix(1.3333333,0,0,-1.3333333,317.9968,212.438)"
         clip-path="url(#clipPath71)" />
      <path
         id="path72"
         d="m 0,0 c -2.322,2.322 -5.533,3.754 -8.942,3.754 -3.41,0 -6.572,-1.432 -8.844,-3.754 -2.273,-2.273 -3.706,-5.435 -3.706,-8.942 0,-3.508 1.433,-6.67 3.706,-8.943 2.272,-2.322 5.434,-3.755 8.844,-3.755 3.409,0 6.62,1.433 8.942,3.755 2.223,2.273 3.657,5.385 3.657,8.943 C 3.657,-5.385 2.223,-2.273 0,0 m -21.393,3.557 c 3.163,3.212 7.609,5.237 12.451,5.237 4.891,0 9.288,-2.025 12.5,-5.237 3.112,-3.211 5.138,-7.608 5.138,-12.499 0,-4.891 -2.026,-9.289 -5.138,-12.5 -3.212,-3.261 -7.609,-5.237 -12.5,-5.237 -4.842,0 -9.288,1.976 -12.451,5.237 -3.112,3.211 -5.138,7.609 -5.138,12.5 0,4.891 2.026,9.288 5.138,12.499"
         style="fill:#123274;fill-opacity:1;fill-rule:nonzero;stroke:none"
         transform="matrix(1.3333333,0,0,-1.3333333,375.76893,177.26093)"
         clip-path="url(#clipPath73)" />
      <path
         id="path74"
         d="M 0,0 C 0.053,0.176 13.479,18.275 15.054,20.362 H 8.989 C 6.798,17.422 -4.671,2.14 -6.14,0.218 -5.848,-0.184 9.34,-20.827 9.23,-20.827 c -2.626,-0.011 -5.25,-0.008 -7.89,-0.008 -3.864,5.146 -7.728,10.29 -11.628,15.481 -0.285,-0.367 -11.579,-15.459 -11.605,-15.502 -0.064,-0.036 -165.216,-0.012 -222.488,-0.003 v -4.788 c 57.459,-0.001 223.953,-0.005 224.429,-0.005 0.575,0 0.856,0.442 1.045,0.679 0.02,0.054 8.62,11.361 8.76,11.41 0.126,-0.181 5.975,-7.94 8.746,-11.661 0.249,-0.335 0.479,-0.428 0.853,-0.428 4.534,0.006 19.326,0 19.897,0 C 18.726,-24.861 0.099,-0.118 0,0 Z"
         style="fill:none;stroke:#123274;stroke-width:1;stroke-linecap:butt;stroke-linejoin:miter;stroke-miterlimit:10;stroke-dasharray:none;stroke-opacity:1"
         transform="matrix(1.3333333,0,0,-1.3333333,510.47,188.92827)"
         clip-path="url(#clipPath75)" />
      <path
         id="path76"
         d="m 0,0 v 29.693 h -10.475 v 5.039 H 15.414 V 29.693 H 4.989 V 0 Z m -83.079,5.435 h 16.057 V 0.445 H -88.118 V 34.98 h 21.048 v -4.99 h -16.009 v -9.733 h 15.662 v -5.039 h -15.662 z m -33.893,-4.99 v 34.634 l 3.853,-0.05 16.848,-24.357 v 24.357 h 4.941 V 0.445 h -3.952 l -16.7,24.159 V 0.445 Z"
         style="fill:none;stroke:#ff3c1f;stroke-width:1;stroke-linecap:butt;stroke-linejoin:miter;stroke-miterlimit:10;stroke-dasharray:none;stroke-opacity:1"
         transform="matrix(1.3333333,0,0,-1.3333333,547.47653,212.83387)"
         clip-path="url(#clipPath77)" />
      <path
         id="path78"
         d="M 0,0 0.009,0.01 C 0.007,0.009 0.005,0.007 0.003,0.005 0.002,0.003 0.001,0.002 0,0"
         style="fill:#ff3c1f;fill-opacity:1;fill-rule:nonzero;stroke:none"
         transform="matrix(1.3333333,0,0,-1.3333333,513.0052,158.33573)"
         clip-path="url(#clipPath79)" />
      <path
         id="path80"
         d="M 0,0 C -0.575,0.001 -0.857,-0.44 -1.045,-0.677 -1.066,-0.73 -9.69,-12.02 -9.831,-12.068 c -0.125,0.181 -5.958,7.952 -8.72,11.679 -0.249,0.334 -0.478,0.43 -0.851,0.43 -4.536,0.003 -19.327,0.04 -19.898,0.042 0.621,-0.793 19.196,-25.576 19.295,-25.693 -0.054,-0.177 -13.517,-18.247 -15.098,-20.331 2.127,-0.004 4.082,-0.008 6.065,-0.012 2.197,2.935 13.7,18.193 15.172,20.112 -0.291,0.402 -15.435,21.076 -15.326,21.076 2.625,0.006 5.251,-0.002 7.89,-0.007 3.854,-5.154 7.707,-10.306 11.594,-15.505 0.287,0.365 11.614,15.434 11.639,15.477 0.063,0.035 29.966,-0.007 41.111,-0.024 v 4.787 C 31.708,-0.027 0.472,-0.001 0,0"
         style="fill:#ff3c1f;fill-opacity:1;fill-rule:nonzero;stroke:none"
         transform="matrix(1.3333333,0,0,-1.3333333,510.63933,151.5844)"
         clip-path="url(#clipPath81)" />
    </g>
  </g>
</svg>
